<svg xmlns="http://www.w3.org/2000/svg" clip-path="url(#clip)" width="1466" height="1218" style=""><rect id="backgroundrect" width="100%" height="100%" x="0" y="0" fill="none" stroke="none" class="" style=""/><defs><clipPath id="clip" clipPathUnits="objectBoundingBox"><rect x="0" y="0" width="512" height="378.9153747558594" id="svg_1"/></clipPath></defs><g class="currentLayer" style=""><title>Layer 1</title><g class=""><rect x="0" y="0" width="1466.2549508766003" height="1218.3631379030514" fill="rgb(235, 214, 63)" id="svg_2" class=""/><path d="M629.8187548817598,195.78895306105053 L1158.0457331235841,773.4083528791405 L239.3645985656155,688.1062604559713 z" fill="rgb(0, 0, 0)" fill-opacity="0.50" id="svg_3" class=""/><path d="M681.4820976834724,486.58448215410056 L863.2802163626754,408.147672729483 L1109.5145013811598,515.7410671255487 z" fill="rgb(0, 0, 0)" fill-opacity="0.50" class="" id="svg_93"/><path d="M722.2815177060085,888.5703018875116 L609.7181573265796,1033.6743503828566 L549.9188721250079,332.33811598868874 z" fill="rgb(0, 0, 0)" fill-opacity="0.50" id="svg_4" class=""/><path d="M1045.9011787968668,890.2977310362658 L899.9205708047948,968.0320427302005 L845.397693121009,49.03973559301496 z" fill="rgb(0, 0, 0)" fill-opacity="0.50" id="svg_5" class=""/><path d="M996.6547086308666,909.2994516725608 L1093.3888464569384,334.0655451374429 L1186.605379271153,1073.405220804201 z" fill="rgb(255, 255, 255)" fill-opacity="0.50" id="svg_6" class=""/><path d="M732.8343327415799,1213.3269818532842 L929.8202134055807,734.829107648396 L683.5878625755798,738.2839659459041 z" fill="rgb(255, 255, 255)" fill-opacity="0.50" id="svg_7" class=""/><path d="M1001.9311161486523,938.6657472013809 L878.8149407336518,898.9348767800363 L1019.519141207938,404.8901402363613 z" fill="rgb(0, 0, 0)" fill-opacity="0.50" id="svg_8" class=""/><path d="M283.1671234348301,624.273642128133 L952.6846218913468,759.0131157309535 L919.1442462461266,408.34499853386944 z" fill="rgb(0, 0, 0)" fill-opacity="0.50" id="svg_9" class=""/><path d="M139.5316028502088,725.04032762984 L486.6020285095401,669.7625948697087 L460.86161966279917,509.11168403557645 z" fill="rgb(0, 0, 0)" fill-opacity="0.50" class="" id="svg_38"/><path d="M694.467893588235,473.98730618652553 L1351.9328148284394,328.88325769118046 L15.242904032752355,422.16443172390234 z" fill="rgb(255, 255, 255)" fill-opacity="0.50" id="svg_10" class=""/><path d="M273.7868786942212,705.4628121195761 L600.9241447969366,779.7422655160028 L502.43120446493623,672.641658293248 z" fill="rgb(255, 255, 255)" fill-opacity="0.50" id="svg_11" class=""/><path d="M673.0350475400083,784.924552962265 L910.4733858403663,714.0999578633466 L903.438175816652,859.2040063586917 z" fill="rgb(255, 255, 255)" fill-opacity="0.50" id="svg_12" class=""/><path d="M312.4805338246499,556.9039053267228 L141.87669074957785,558.6313344754769 L224.540408528221,722.7371036071172 z" fill="rgb(255, 255, 255)" fill-opacity="0.50" id="svg_13" class=""/><path d="M984.3430910893666,460.16787299649275 L1200.6757993185815,119.86433069193342 L1144.3941191288673,708.9176704170843 z" fill="rgb(255, 255, 255)" fill-opacity="0.50" id="svg_14" class=""/><path d="M968.5138685360095,826.3828525323637 L880.5737432395806,943.8480346476431 L884.0913482514377,1090.6795122917422 z" fill="rgb(255, 255, 255)" fill-opacity="0.50" id="svg_15" class=""/><path d="M704.6934926467227,802.1988444498062 L623.7885773740081,822.9279942348554 L636.1001949155083,952.4851803914137 z" fill="rgb(0, 0, 0)" fill-opacity="0.50" id="svg_16" class=""/><path d="M315.99813883650705,534.4473263929194 L490.11958692343626,454.98558555023044 L539.3660570894364,703.735382970822 z" fill="rgb(0, 0, 0)" fill-opacity="0.50" id="svg_17" class=""/><path d="M706.4522951526513,873.0234395487246 L644.8942074451511,1011.2177714490533 L620.270972362151,824.6554233836097 z" fill="rgb(0, 0, 0)" fill-opacity="0.50" id="svg_18" class=""/><path d="M551.6776746309365,783.197123813511 L947.4082384648664,416.98214427764003 L1084.5948339272957,624.273642128133 z" fill="rgb(0, 0, 0)" fill-opacity="0.50" id="svg_19" class=""/><path d="M887.6089532632948,456.7130146989846 L634.3413924095796,854.0217189124295 L410.9734741566502,479.16959363278795 z" fill="rgb(0, 0, 0)" fill-opacity="0.50" id="svg_20" class=""/><path d="M776.8043953897944,423.8918608726565 L727.5579252237942,740.0113950946583 L1047.6599813027954,679.5513748882645 z" fill="rgb(0, 0, 0)" fill-opacity="0.50" id="svg_21" class=""/><path d="M632.5825899036511,1007.762913151545 L688.8642700933655,881.6605852924952 L583.3361197376508,966.3046135814466 z" fill="rgb(0, 0, 0)" fill-opacity="0.50" id="svg_22" class=""/><path d="M282.58089122386406,605.2719214918378 L312.4805338246499,714.0999578633466 L242.1284335875068,712.3725287145925 z" fill="rgb(0, 0, 0)" fill-opacity="0.50" id="svg_23" class=""/><path d="M775.0455928838658,408.34499853386944 L215.74639599857812,112.95461409691696 L1235.8518494371533,505.0810308640995 z" fill="rgb(255, 255, 255)" fill-opacity="0.50" id="svg_24" class=""/><path d="M1226.2134098975355,460.6284015124977 L990.7920838990012,1022.1581807532623 L1037.9887928605172,635.6546667853147 z" fill="rgb(255, 255, 255)" fill-opacity="0.50" class="" id="svg_95"/><path d="M636.1001949155083,876.4782978462329 L604.4417498087937,961.1223261351842 L562.2304896665079,724.4645327558712 z" fill="rgb(255, 255, 255)" fill-opacity="0.50" id="svg_26" class=""/><path d="M562.2304896665079,700.2805246733137 L599.1653422910081,831.565139978626 L289.6161012475784,696.8256663758056 z" fill="rgb(255, 255, 255)" fill-opacity="0.50" id="svg_27" class=""/><path d="M986.1018935952951,473.98730618652553 L1017.7603387020096,717.5548161608549 L1047.6599813027954,553.4490470292145 z" fill="rgb(0, 0, 0)" fill-opacity="0.50" id="svg_28" class=""/><path d="M386.3502390736502,479.16959363278795 L242.1284335875068,717.5548161608549 L537.6072545835078,653.639937656953 z" fill="rgb(0, 0, 0)" fill-opacity="0.50" id="svg_29" class=""/><path d="M688.8642700933655,878.205726994987 L690.623072599294,645.0027919131824 L604.4417498087937,817.7457067885931 z" fill="rgb(0, 0, 0)" fill-opacity="0.50" id="svg_30" class=""/><path d="M924.5438058877949,912.7543099700691 L957.961053500438,881.6605852924952 L954.4434484885808,810.8359901935767 z" fill="rgb(255, 255, 255)" fill-opacity="0.50" id="svg_31" class=""/><path d="M365.2446090025072,568.9959093680015 L359.9682014847215,601.8170631943295 L393.38544909736447,582.8153425580344 z" fill="rgb(255, 255, 255)" fill-opacity="0.50" id="svg_32" class=""/><path d="M579.8185147257936,1045.7663544241354 L804.9452354846518,954.2126095401677 L604.4417498087937,997.3983382590205 z" fill="rgb(255, 255, 255)" fill-opacity="0.50" id="svg_33" class=""/><path d="M975.5490785597236,456.7130146989846 L1021.2779437138668,715.8273870121008 L637.8589974214367,736.55653679715 z" fill="rgb(0, 0, 0)" fill-opacity="0.50" id="svg_34" class=""/><path d="M1112.6519216316951,482.6244519302961 L1332.5022348727675,978.3966176227252 L991.2945487226234,828.1102816811178 z" fill="rgb(255, 255, 255)" fill-opacity="0.50" id="svg_35" class=""/><path d="M933.3378184174378,893.7525893337739 L878.8149407336518,898.9348767800363 L954.4434484885808,764.1954031772159 z" fill="rgb(0, 0, 0)" fill-opacity="0.50" id="svg_36" class=""/><path d="M600.9241447969366,802.1988444498062 L630.8237873977224,911.0268808213151 L588.6125272554366,974.9417593252169 z" fill="rgb(255, 255, 255)" fill-opacity="0.50" id="svg_37" class=""/><path d="M437.6453748918849,470.155864743744 L767.2632092864607,449.41492906207156 L1041.5075561995272,39.03441356719107 z" fill="rgb(255, 255, 255)" fill-opacity="0.50" class="" id="svg_94"/><path d="M1075.8008213976525,624.273642128133 L831.3272730735804,418.7095734263942 L458.4611418167218,534.4473263929194 z" fill="rgb(0, 0, 0)" fill-opacity="0.50" id="svg_39" class=""/><path d="M361.7270039906501,1047.4937835728895 L539.3660570894364,691.6433789295432 L395.144251603293,677.8239457395105 z" fill="rgb(255, 255, 255)" fill-opacity="0.50" id="svg_40" class=""/><path d="M727.5579252237942,933.4834597551184 L664.2410350103654,931.7560306063643 L671.2762450340798,990.4886216640041 z" fill="rgb(255, 255, 255)" fill-opacity="0.50" id="svg_41" class=""/><path d="M915.749793358152,727.9193910533795 L653.6882199747939,1142.5023867543655 L899.9205708047948,698.5530955245597 z" fill="rgb(255, 255, 255)" fill-opacity="0.50" id="svg_42" class=""/><path d="M502.43120446493623,651.9125085081987 L535.8484520775793,627.7285004256412 L521.7780320301506,581.0879134092803 z" fill="rgb(201, 200, 200)" fill-opacity="0.50" id="svg_43" class=""/><path d="M607.959354820651,968.0320427302005 L681.8290600696513,745.1936825409206 L701.1758876348656,926.573743160102 z" fill="rgb(0, 0, 0)" fill-opacity="0.50" id="svg_44" class=""/><path d="M247.40484110529252,729.6468202021337 L287.85729874164986,486.0793102278044 L140.1178882436493,695.0982372270514 z" fill="rgb(255, 255, 255)" fill-opacity="0.50" id="svg_45" class=""/><path d="M324.79215136614994,534.4473263929194 L433.83790673372175,460.16787299649275 L490.11958692343626,351.33983662498395 z" fill="rgb(255, 255, 255)" fill-opacity="0.50" id="svg_46" class=""/><path d="M694.1406776111513,860.9314355074458 L899.9205708047948,909.2994516725608 L688.8642700933655,700.2805246733137 z" fill="rgb(255, 255, 255)" fill-opacity="0.50" id="svg_47" class=""/><path d="M474.29036437007903,672.641658293248 L657.2058249866511,746.9211116896747 L344.1389789313643,534.4473263929194 z" fill="rgb(0, 0, 0)" fill-opacity="0.50" id="svg_48" class=""/><path d="M1030.0719562435095,774.5599780697404 L929.8202134055807,924.846314011348 L977.3078810656522,947.3028929451514 z" fill="rgb(0, 0, 0)" fill-opacity="0.50" id="svg_49" class=""/><path d="M509.4664144886506,468.8050187402632 L391.6266465914359,689.9159497807892 L395.144251603293,479.16959363278795 z" fill="rgb(0, 0, 0)" fill-opacity="0.50" id="svg_50" class=""/><path d="M1051.1775863146524,622.5462129793789 L1005.4487211605095,745.1936825409206 L1052.936388820581,809.1085610448226 z" fill="rgb(255, 255, 255)" fill-opacity="0.50" id="svg_51" class=""/><path d="M889.3677557692233,753.8308282846912 L1024.7955487257238,757.2856865821993 L1019.519141207938,809.1085610448226 z" fill="rgb(0, 0, 0)" fill-opacity="0.50" id="svg_52" class=""/><path d="M952.6846459826521,857.4765772099377 L1012.4839311842237,840.2022857223966 L1010.7251286782953,586.2702008555426 z" fill="rgb(0, 0, 0)" fill-opacity="0.50" id="svg_53" class=""/><path d="M418.0086841803646,548.2667595829522 L337.10376890765,532.7198972441653 L268.5104711764355,634.6382170206576 z" fill="rgb(0, 0, 0)" fill-opacity="0.50" id="svg_54" class=""/><path d="M477.8079693819362,665.7319416982317 L249.16364361122112,712.3725287145925 L315.99813883650705,560.358763624231 z" fill="rgb(0, 0, 0)" fill-opacity="0.50" id="svg_55" class=""/><path d="M864.7445206862233,741.7388242434124 L882.332545745509,895.480018482528 L685.3466650815084,733.1016784996418 z" fill="rgb(255, 255, 255)" fill-opacity="0.50" id="svg_56" class=""/><path d="M1037.107166267224,655.367366805707 L1030.0719562435095,601.8170631943295 L1074.042018891724,672.641658293248 z" fill="rgb(255, 255, 255)" fill-opacity="0.50" id="svg_57" class=""/><path d="M959.7198560063665,873.0234395487246 L931.5790159115093,914.4817391188233 L942.1318309470807,840.2022857223966 z" fill="rgb(255, 255, 255)" fill-opacity="0.50" id="svg_58" class=""/><path d="M1019.519141207938,810.8359901935767 L905.1969783225805,835.0199982761342 L906.9557808285092,726.1919619046254 z" fill="rgb(0, 0, 0)" fill-opacity="0.50" id="svg_59" class=""/><path d="M497.15479694715054,560.358763624231 L535.8484520775793,511.99074745911594 L495.39599444122194,549.9941887317063 z" fill="rgb(255, 255, 255)" fill-opacity="0.50" id="svg_60" class=""/><path d="M695.8994801170799,876.4782978462329 L775.0455928838658,1128.6829535643328 L690.623072599294,683.0062331857727 z" fill="rgb(255, 255, 255)" fill-opacity="0.50" id="svg_61" class=""/><path d="M993.1371036190095,472.2598770377715 L840.1212856032231,399.70785279009897 L1207.711009342296,460.16787299649275 z" fill="rgb(255, 255, 255)" fill-opacity="0.50" id="svg_62" class=""/><path d="M899.9205708047948,855.7491480611835 L912.2321883462948,814.290848491085 L738.1107402593657,743.4662533921665 z" fill="rgb(255, 255, 255)" fill-opacity="0.50" id="svg_63" class=""/><path d="M476.04916687600763,544.811901285444 L500.6724019590077,496.4438851203289 L495.39599444122194,484.35188107905014 z" fill="rgb(249, 248, 248)" fill-opacity="0.50" id="svg_64" class=""/><path d="M249.16364361122112,681.2788040370186 L270.26927368236403,724.4645327558712 L303.68652129500697,587.9976300042968 z" fill="rgb(0, 0, 0)" fill-opacity="0.50" id="svg_65" class=""/><path d="M446.1495242752218,5.854006874162255 L535.8484520775793,470.53244788901736 L690.623072599294,470.53244788901736 z" fill="rgb(255, 255, 255)" fill-opacity="0.50" id="svg_66" class=""/><path d="M233.3344210578639,679.5513748882645 L351.1741889550786,511.99074745911594 L110.21824564286347,634.6382170206576 z" fill="rgb(255, 255, 255)" fill-opacity="0.50" id="svg_67" class=""/><path d="M655.4470224807226,983.5789050689875 L581.5773172317222,1012.9452005978072 L664.2410350103654,1075.1326499529553 z" fill="rgb(255, 255, 255)" fill-opacity="0.50" id="svg_68" class=""/><path d="M1091.6300439510098,812.5634193423309 L1114.4944765280811,384.16099045131193 L1063.4892038561525,596.6347757480673 z" fill="rgb(255, 255, 255)" fill-opacity="0.50" id="svg_69" class=""/><path d="M532.3308470657222,565.5410510704933 L674.7938500459369,482.6244519302961 L528.813242053865,465.35016044275494 z" fill="rgb(0, 0, 0)" fill-opacity="0.50" id="svg_70" class=""/><path d="M711.7287026704371,454.98558555023044 L692.3818751052227,727.9193910533795 L804.9452354846518,741.7388242434124 z" fill="rgb(0, 0, 0)" fill-opacity="0.50" id="svg_71" class=""/><path d="M989.7870033880672,470.61470631204463 L1100.5915612615677,636.4479045924392 L1141.0440188979248,88.8528644373867 z" fill="rgb(235, 214, 63)" fill-opacity="0.50" id="svg_72" class=""/><path d="M504.1900069708649,467.0775895915092 L544.6424646072222,472.2598770377715 L493.6371919352934,489.53416852531257 z" fill="rgb(0, 0, 0)" fill-opacity="0.50" id="svg_73" class=""/><path d="M1038.8659687731524,626.001071276887 L1068.765611373938,636.3656461694118 L1042.3835737850097,541.3570429879358 z" fill="rgb(0, 0, 0)" fill-opacity="0.50" id="svg_74" class=""/><path d="M588.6125272554366,974.9417593252169 L630.8237873977224,997.3983382590205 L694.1406776111513,836.7474274248884 z" fill="rgb(0, 0, 0)" fill-opacity="0.50" id="svg_75" class=""/><path d="M252.68124862307826,734.829107648396 L338.86257141357856,672.641658293248 L245.64603859936395,814.290848491085 z" fill="rgb(255, 255, 255)" fill-opacity="0.50" id="svg_76" class=""/><path d="M565.7480946783651,719.282245309609 L736.351937753437,442.8935815089517 L650.1706149629368,912.7543099700691 z" fill="rgb(0, 0, 0)" fill-opacity="0.50" id="svg_77" class=""/><path d="M984.3430910893666,1045.7663544241354 L834.8448780854375,914.4817391188233 L931.5790159115093,905.8445933750527 z" fill="rgb(255, 255, 255)" fill-opacity="0.50" id="svg_78" class=""/><path d="M613.2357623384368,931.7560306063643 L567.5068971842936,714.0999578633466 L467.25515434636475,670.9142291444939 z" fill="rgb(255, 255, 255)" fill-opacity="0.50" id="svg_79" class=""/><path d="M221.02280351636387,783.197123813511 L305.4453238009355,695.0982372270514 L453.18473429893606,703.735382970822 z" fill="rgb(254, 254, 254)" fill-opacity="0.50" id="svg_80" class=""/><path d="M977.3078810656522,1023.309775490332 L1005.4487211605095,919.6640265650855 L968.5138685360095,938.6657472013809 z" fill="rgb(252, 252, 252)" fill-opacity="0.50" id="svg_81" class=""/><path d="M600.9241447969366,955.940038688922 L634.3413924095796,874.7508686974787 L588.6125272554366,781.4696946647568 z" fill="rgb(255, 255, 255)" fill-opacity="0.50" id="svg_82" class=""/><path d="M461.978746828579,676.0965165907562 L701.1758876348656,689.9159497807892 L571.0245021961509,615.6364963843624 z" fill="rgb(0, 0, 0)" fill-opacity="0.50" id="svg_83" class=""/><path d="M957.961053500438,947.3028929451514 L956.2022509945093,807.3811318960685 L993.1371036190095,923.1188848625939 z" fill="rgb(0, 0, 0)" fill-opacity="0.50" id="svg_84" class=""/><path d="M1176.0525642355815,1066.4955042091847 L1012.4839311842237,750.3759699871829 L1038.8659687731524,639.8205044669199 z" fill="rgb(255, 255, 255)" fill-opacity="0.50" id="svg_85" class=""/><path d="M996.6547086308666,480.897022781542 L901.6793733107233,430.8015774676729 L972.0314735478665,943.8480346476431 z" fill="rgb(0, 0, 0)" fill-opacity="0.50" id="svg_86" class=""/><path d="M940.3730284411521,898.9348767800363 L935.0966209233663,933.4834597551184 L998.4135111367951,912.7543099700691 z" fill="rgb(0, 0, 0)" fill-opacity="0.50" id="svg_87" class=""/><path d="M96.14782559543485,778.0148363672487 L233.3344210578639,686.4610914832809 L307.20412630686417,760.7405448797075 z" fill="rgb(235, 214, 63)" fill-opacity="0.50" id="svg_88" class=""/><path d="M915.749793358152,425.6192900214106 L864.7445206862233,309.88153705488526 L1010.7251286782953,492.98902682282073 z" fill="rgb(255, 255, 255)" fill-opacity="0.50" id="svg_89" class=""/><path d="M866.5033231921518,1.2475233860541177 L878.2286790943509,420.2700983707956 L381.07383155586444,482.0486306978504 z" fill="rgb(255, 255, 255)" fill-opacity="0.50" id="svg_90" class=""/><path d="M979.0666835715809,753.8308282846912 L919.2673983700092,905.8445933750527 L880.5737432395806,885.1154435900033 z" fill="rgb(0, 0, 0)" fill-opacity="0.50" id="svg_91" class=""/><path d="M729.3167277297227,752.1033991359371 L901.6793733107233,722.7371036071172 L908.7145833344377,843.6571440199048 z" fill="rgb(255, 255, 255)" fill-opacity="0.50" id="svg_92" class=""/></g></g></svg>